<svg width="26" height="11" viewBox="0 0 26 11" fill="none" xmlns="http://www.w3.org/2000/svg">
<path fill-rule="evenodd" clip-rule="evenodd" d="M13.0704 9H3.6981C2.81358 9 2.0957 8.316 2.0957 7.472V3.528C2.0957 2.685 2.81358 2 3.6981 2H13.0704C13.9549 2 14.6717 2.685 14.6717 3.528V7.472C14.6717 8.316 13.9549 9 13.0704 9Z" fill="black"/>
<path opacity="0.5" fill-rule="evenodd" clip-rule="evenodd" d="M22.0088 8.415C22.0088 9.29 21.2647 10 20.3477 10H2.70991C1.79291 10 1.04883 9.29 1.04883 8.415V2.585C1.04883 1.71 1.79291 1 2.70991 1H20.3477C21.2647 1 22.0088 1.71 22.0088 2.585V8.415ZM20.6928 0H2.36324C1.05848 0 0 1.01 0 2.255V8.745C0 9.99 1.05848 11 2.36324 11H20.6928C21.9975 11 23.056 9.99 23.056 8.745V2.255C23.056 1.01 21.9975 0 20.6928 0Z" fill="black"/>
<path opacity="0.5" fill-rule="evenodd" clip-rule="evenodd" d="M23.842 7.5V3.5C24.7097 3.5 25.414 4.172 25.414 5V6C25.414 6.829 24.7097 7.5 23.842 7.5Z" fill="black"/>
</svg>
