<svg width="18" height="11" viewBox="0 0 18 11" fill="none" xmlns="http://www.w3.org/2000/svg">
<path opacity="0.5" fill-rule="evenodd" clip-rule="evenodd" d="M15.8115 0H16.7845C17.4558 0 18 0.520302 18 1.16083V9.51596C18 10.1565 17.4558 10.6768 16.7845 10.6768H15.8115C15.1392 10.6768 14.596 10.1565 14.596 9.51596V1.16083C14.596 0.520302 15.1392 0 15.8115 0Z" fill="black"/>
<path fill-rule="evenodd" clip-rule="evenodd" d="M10.9455 2.32101H11.9185C12.5909 2.32101 13.134 2.84031 13.134 3.48184V9.51633C13.134 10.1569 12.5909 10.6772 11.9185 10.6772H10.9455C10.2732 10.6772 9.73001 10.1569 9.73001 9.51633V3.48184C9.73001 2.84031 10.2732 2.32101 10.9455 2.32101Z" fill="black"/>
<path fill-rule="evenodd" clip-rule="evenodd" d="M6.08137 4.64203H7.05439C7.72673 4.64203 8.26988 5.16132 8.26988 5.80185V9.51569C8.26988 10.1562 7.72673 10.6765 7.05439 10.6765H6.08137C5.40904 10.6765 4.86588 10.1562 4.86588 9.51569V5.80185C4.86588 5.16132 5.40904 4.64203 6.08137 4.64203Z" fill="black"/>
<path fill-rule="evenodd" clip-rule="evenodd" d="M1.21549 6.0346H2.18852C2.86085 6.0346 3.40401 6.5539 3.40401 7.19442V9.51608C3.40401 10.1566 2.86085 10.6769 2.18852 10.6769H1.21549C0.544217 10.6769 0 10.1566 0 9.51608V7.19442C0 6.5539 0.544217 6.0346 1.21549 6.0346Z" fill="black"/>
</svg>
