<svg width="149" height="131" viewBox="0 0 149 131" fill="none" xmlns="http://www.w3.org/2000/svg">
<rect x="0.5" y="0.5" width="148" height="130" rx="11.5" fill="#ABD02B"/>
<rect x="0.5" y="0.5" width="148" height="130" rx="11.5" stroke="#ABD02B"/>
<path d="M74.5 46C81.9444 46 88 40.1677 88 32.9996C88 25.8315 81.9436 20 74.5 20C67.0564 20 61 25.8315 61 32.9996C61 40.1685 67.0564 46 74.5 46ZM74.5 26.3761C78.2925 26.3761 81.378 29.3474 81.378 32.9996C81.378 36.6517 78.2925 39.6231 74.5 39.6231C70.7075 39.6231 67.622 36.6517 67.622 32.9996C67.622 29.3474 70.7075 26.3761 74.5 26.3761Z" fill="white"/>
<path d="M94.0804 60H54.9199C53.2258 60 51.6616 60.7649 50.6272 62.0989C49.5945 63.4337 49.25 65.1327 49.6825 66.7608L58.1128 98.4575C60.076 105.842 66.8147 111 74.4997 111C82.184 111 88.9227 105.842 90.8867 98.4575L99.317 66.7608C99.7503 65.1327 99.4058 63.4337 98.3722 62.0997C97.3387 60.7649 95.7745 60 94.0804 60ZM84.6627 96.821C83.4447 101.401 79.2652 104.6 74.4997 104.6C69.7343 104.6 65.5548 101.401 64.3368 96.821L56.246 66.3992H92.7535L84.6627 96.821Z" fill="white"/>
</svg>
