<svg width="16" height="11" viewBox="0 0 16 11" fill="none" xmlns="http://www.w3.org/2000/svg">
<path fill-rule="evenodd" clip-rule="evenodd" d="M7.77297 6.87C6.6091 6.87 5.6383 7.6246 5.36887 8.63837L7.88642 11L10.2163 8.81427C10.02 7.71203 9.00448 6.87 7.77297 6.87Z" fill="black"/>
<path fill-rule="evenodd" clip-rule="evenodd" d="M7.77337 3.52856C5.64087 3.52856 3.77017 4.56627 2.69356 6.12959L4.24684 7.58468C4.88714 6.35754 6.2179 5.50614 7.77337 5.50614C9.38774 5.50614 10.773 6.41895 11.3817 7.72311L12.9394 6.26178C11.8791 4.62559 9.96477 3.52856 7.77337 3.52856Z" fill="black"/>
<path opacity="0.5" fill-rule="evenodd" clip-rule="evenodd" d="M7.77297 0C4.60423 0 1.79326 1.41553 0 3.60336L1.56201 5.0678C2.94295 3.24635 5.20743 2.05356 7.77297 2.05356C10.3963 2.05356 12.7099 3.29735 14.081 5.18958L15.6441 3.72513C13.8552 1.46861 11.0006 0 7.77297 0Z" fill="black"/>
</svg>
