<svg width="149" height="131" viewBox="0 0 149 131" fill="none" xmlns="http://www.w3.org/2000/svg">
<rect x="0.5" y="0.5" width="148" height="130" rx="11.5" stroke="#DEDEDE"/>
<path d="M74.5 46C81.9444 46 88 40.1677 88 32.9996C88 25.8315 81.9436 20 74.5 20C67.0564 20 61 25.8315 61 32.9996C61 40.1685 67.0564 46 74.5 46ZM74.5 26.3761C78.2925 26.3761 81.378 29.3474 81.378 32.9996C81.378 36.6517 78.2925 39.6231 74.5 39.6231C70.7075 39.6231 67.622 36.6517 67.622 32.9996C67.622 29.3474 70.7075 26.3761 74.5 26.3761Z" fill="#A9A9A9"/>
<path d="M94.0804 111H54.9199C53.2258 111 51.6616 110.235 50.6272 108.901C49.5945 107.566 49.25 105.867 49.6825 104.239L58.1128 72.5425C60.076 65.1577 66.8147 60 74.4997 60C82.184 60 88.9227 65.1577 90.8867 72.5425L99.317 104.239C99.7503 105.867 99.4058 107.566 98.3722 108.9C97.3387 110.235 95.7745 111 94.0804 111ZM84.6627 74.179C83.4447 69.5987 79.2652 66.4 74.4997 66.4C69.7343 66.4 65.5548 69.5987 64.3368 74.179L56.246 104.601H92.7535L84.6627 74.179Z" fill="#A9A9A9"/>
</svg>
